<?xml version="1.0" encoding="utf-8"?>
<!-- Generator: Adobe Illustrator 22.0.1, SVG Export Plug-In . SVG Version: 6.00 Build 0)  -->
<svg version="1.1" id="Слой_1" xmlns="http://www.w3.org/2000/svg" xmlns:xlink="http://www.w3.org/1999/xlink" x="0px" y="0px"
	 viewBox="0 0 60.428 64.836" style="enable-background:new 0 0 60.428 64.836;" xml:space="preserve">
<g>
	<g>
		<path style="fill:#B18B5E;" d="M33.708,29.793v5.122v3.382c0.309-0.196,0.703-0.502,1.158-0.977
			c0.135-0.174,0.357-0.273,0.59-0.239c0.346,0.049,0.587,0.37,0.537,0.716l-0.001,0c-0.151,1.059-0.918,2.431-1.938,3.459
			c-0.906,0.913-2.031,1.582-3.146,1.582c-0.771,0-1.471-0.315-1.978-0.822c-0.507-0.507-0.822-1.207-0.822-1.978v-5.122v-3.382
			c-0.309,0.196-0.703,0.502-1.158,0.977c-0.135,0.174-0.357,0.273-0.59,0.239c-0.346-0.049-0.587-0.37-0.537-0.716l0.001,0
			c0.151-1.059,0.918-2.431,1.938-3.459c0.906-0.913,2.031-1.582,3.146-1.582c0.771,0,1.471,0.315,1.978,0.822
			C33.393,28.322,33.708,29.022,33.708,29.793z"/>
		<path style="fill:#B18B5E;" d="M30.189,19.655c0.818,0,1.559,0.332,2.095,0.868c0.536,0.536,0.868,1.277,0.868,2.095
			c0,0.818-0.332,1.559-0.868,2.095c-0.536,0.536-1.277,0.868-2.095,0.868c-0.818,0-1.559-0.332-2.095-0.868
			c-0.536-0.536-0.868-1.277-0.868-2.095s0.332-1.559,0.868-2.095C28.63,19.987,29.371,19.655,30.189,19.655z"/>
	</g>
</g>
<linearGradient id="SVGID_1_" gradientUnits="userSpaceOnUse" x1="60.4279" y1="35.9286" x2="26.4334" y2="35.9286">
	<stop  offset="0" style="stop-color:#FFFFFF"/>
	<stop  offset="1" style="stop-color:#B18B5E"/>
</linearGradient>
<path style="fill:url(#SVGID_1_);" d="M43.963,7.021c0,0,0.263,0.175,0.788,0.438c0.263,0.088,0.525,0.263,0.876,0.438
	c0.35,0.175,0.788,0.438,1.226,0.701c0.438,0.263,0.963,0.613,1.401,0.963c0.525,0.35,1.051,0.788,1.664,1.226
	c0.613,0.438,1.139,1.051,1.752,1.576c0.613,0.613,1.226,1.226,1.752,1.927c1.226,1.401,2.365,3.065,3.328,4.904
	c1.051,1.839,1.927,3.941,2.54,6.13c0.175,0.525,0.35,1.138,0.438,1.664c0.088,0.613,0.263,1.138,0.35,1.752
	s0.175,1.226,0.263,1.839l0.088,0.876v0.438v0.263v0.088v0.088v0.088c0,0.613,0,1.138,0,1.752s0,1.138-0.088,1.839
	c-0.175,1.314-0.263,2.627-0.525,3.766c-0.438,2.54-1.401,4.904-2.452,7.181c-1.139,2.189-2.452,4.379-4.029,6.218
	c-0.35,0.438-0.788,0.963-1.139,1.401c-0.438,0.438-0.876,0.876-1.226,1.226c-0.788,0.876-1.752,1.489-2.627,2.277
	c-0.438,0.35-0.876,0.701-1.314,0.963c-0.438,0.263-0.876,0.613-1.314,0.876c-0.876,0.525-1.839,0.963-2.715,1.489
	c-1.752,0.876-3.503,1.489-5.079,1.927c-0.35,0.088-0.788,0.263-1.138,0.35c-0.35,0.088-0.701,0.175-1.051,0.263
	c-0.701,0.175-1.314,0.263-1.927,0.35c-1.138,0.175-2.102,0.175-2.715,0.263c-0.525,0.263-0.876,0.263-0.876,0.263
	c-1.927,0.175-3.591-1.226-3.766-3.153s1.226-3.591,3.153-3.766c0.088,0,0.175,0,0.263,0h0.35c0,0,0.263,0,0.788,0
	c0.525,0,1.226,0,2.102,0c0.438-0.088,0.963-0.088,1.489-0.175c0.263,0,0.613,0,0.876-0.088c0.263-0.088,0.613-0.088,0.876-0.175
	c1.314-0.175,2.715-0.613,4.204-1.139c0.701-0.35,1.489-0.613,2.277-0.963c0.35-0.175,0.788-0.438,1.139-0.613
	c0.438-0.175,0.788-0.438,1.226-0.701c0.788-0.525,1.576-1.051,2.365-1.664c0.35-0.35,0.788-0.613,1.139-0.963
	c0.35-0.35,0.701-0.701,1.051-1.051c1.489-1.401,2.715-3.153,3.941-4.992c1.051-1.927,2.102-3.941,2.715-6.043
	c0.35-1.051,0.525-2.102,0.788-3.24c0.175-0.525,0.175-1.138,0.263-1.752c0.088-0.613,0.088-1.138,0.175-1.752
	c0-0.525,0-1.051,0-1.576c0-0.525-0.088-1.138-0.088-1.664c0-0.525-0.088-1.138-0.175-1.664c-0.088-0.525-0.175-1.051-0.263-1.576
	c-0.438-2.102-1.051-4.116-1.839-5.955c-0.788-1.839-1.752-3.503-2.802-4.904c-0.525-0.701-1.051-1.401-1.576-2.014
	c-0.525-0.613-1.051-1.226-1.576-1.664c-0.525-0.525-0.963-0.963-1.489-1.401c-0.438-0.438-0.876-0.788-1.314-1.051
	c-0.438-0.35-0.788-0.613-1.138-0.788c-0.35-0.263-0.613-0.438-0.876-0.525C44.226,7.196,43.963,7.021,43.963,7.021z"/>
<linearGradient id="SVGID_2_" gradientUnits="userSpaceOnUse" x1="0" y1="28.9077" x2="33.9945" y2="28.9077">
	<stop  offset="0" style="stop-color:#FFFFFF"/>
	<stop  offset="1" style="stop-color:#B18B5E"/>
</linearGradient>
<path style="fill:url(#SVGID_2_);" d="M16.464,57.815c0,0-0.263-0.175-0.788-0.438c-0.263-0.088-0.525-0.263-0.876-0.438
	c-0.35-0.175-0.788-0.438-1.226-0.701c-0.438-0.263-0.963-0.613-1.401-0.963c-0.525-0.35-1.051-0.788-1.664-1.226
	c-0.613-0.438-1.138-1.051-1.752-1.576c-0.613-0.613-1.226-1.226-1.752-1.927c-1.226-1.401-2.365-3.065-3.328-4.904
	c-1.051-1.839-1.927-3.941-2.54-6.13c-0.175-0.525-0.35-1.138-0.438-1.664c-0.088-0.613-0.263-1.138-0.35-1.752
	c-0.088-0.613-0.175-1.226-0.263-1.839L0,33.381v-0.438v-0.263v-0.088v-0.088v-0.088c0-0.613,0-1.138,0-1.752
	c0-0.613,0-1.138,0.088-1.839c0.175-1.314,0.263-2.627,0.525-3.766c0.438-2.54,1.401-4.904,2.452-7.181
	c1.138-2.189,2.452-4.379,4.029-6.218c0.35-0.438,0.788-0.963,1.138-1.401C8.67,9.823,9.108,9.385,9.458,9.035
	c0.788-0.876,1.752-1.489,2.627-2.277c0.438-0.35,0.876-0.701,1.314-0.963c0.438-0.263,0.876-0.613,1.314-0.876
	c0.876-0.525,1.839-0.963,2.715-1.489c1.752-0.876,3.503-1.489,5.079-1.927c0.35-0.088,0.788-0.263,1.138-0.35
	c0.35-0.088,0.701-0.175,1.051-0.263c0.701-0.175,1.314-0.263,1.927-0.35c1.138-0.175,2.102-0.175,2.715-0.263
	c0.525-0.263,0.876-0.263,0.876-0.263c1.927-0.175,3.591,1.226,3.766,3.153c0.175,1.927-1.226,3.591-3.153,3.766
	c-0.088,0-0.175,0-0.263,0l-0.35,0.088c0,0-0.263,0-0.788,0c-0.525,0-1.226,0-2.102,0c-0.438,0.088-0.963,0.088-1.489,0.175
	c-0.263,0-0.613,0-0.876,0.088c-0.263,0.088-0.613,0.088-0.876,0.175c-1.314,0.175-2.715,0.613-4.204,1.138
	c-0.701,0.35-1.489,0.613-2.277,0.963c-0.35,0.175-0.788,0.438-1.138,0.613c-0.438,0.175-0.788,0.438-1.226,0.701
	c-0.788,0.525-1.576,1.051-2.365,1.664c-0.35,0.35-0.788,0.613-1.138,0.963c-0.35,0.35-0.701,0.701-1.051,1.051
	c-1.489,1.401-2.715,3.153-3.941,4.992c-1.051,1.927-2.102,3.941-2.715,6.043c-0.35,1.051-0.525,2.102-0.788,3.24
	c-0.175,0.525-0.175,1.138-0.263,1.752c-0.088,0.613-0.088,1.138-0.175,1.752c0,0.525,0,1.051,0,1.576
	c0,0.525,0.088,1.138,0.088,1.664c0,0.525,0.088,1.138,0.175,1.664c0.088,0.525,0.175,1.051,0.263,1.576
	c0.438,2.102,1.051,4.116,1.839,5.955s1.752,3.503,2.802,4.904c0.525,0.701,1.051,1.401,1.576,2.014
	c0.525,0.613,1.051,1.226,1.576,1.664c0.525,0.525,0.963,0.963,1.489,1.401c0.438,0.438,0.876,0.788,1.314,1.051
	c0.438,0.35,0.788,0.613,1.138,0.788c0.35,0.263,0.613,0.438,0.876,0.525C16.202,57.64,16.464,57.815,16.464,57.815z"/>
</svg>
