<svg id="Слой_1" data-name="Слой 1" xmlns="http://www.w3.org/2000/svg" viewBox="0 0 26.55 26.55"><title>instagram</title><path d="M26,8c0,1.07.06,2.83.06,5.3s0,4.25-.09,5.34a10.74,10.74,0,0,1-.48,2.82,6.69,6.69,0,0,1-4.05,4.05,10.74,10.74,0,0,1-2.82.48c-1.09.06-2.86.09-5.34.09S9,26,7.94,26a9,9,0,0,1-2.82-.54,6,6,0,0,1-2.48-1.51,6.64,6.64,0,0,1-1.57-2.48,10.35,10.35,0,0,1-.48-2.82C.53,17.52.5,15.75.5,13.27S.53,9,.59,7.94a10.35,10.35,0,0,1,.48-2.82,6.69,6.69,0,0,1,4.05-4A10.35,10.35,0,0,1,7.94.59C9,.53,10.8.5,13.27.5s4.25,0,5.34.09a10.35,10.35,0,0,1,2.82.48,6.69,6.69,0,0,1,4.05,4.05A11.64,11.64,0,0,1,26,8ZM13,18.07a4.78,4.78,0,0,0,4.78-4.78A4.78,4.78,0,0,0,13,8.52a4.57,4.57,0,0,0-3.37,1.4,4.58,4.58,0,0,0-1.41,3.37,4.58,4.58,0,0,0,1.41,3.38A4.61,4.61,0,0,0,13,18.07ZM21.66,6.43a1.44,1.44,0,0,0-.46-1.08,1.44,1.44,0,0,0-1.08-.46,1.55,1.55,0,0,0-1.54,1.54A1.55,1.55,0,0,0,20.12,8a1.35,1.35,0,0,0,1.05-.46A1.74,1.74,0,0,0,21.66,6.43Z" style="fill:none;stroke:#000;stroke-width:1.5px"/></svg>